<svg xmlns="http://www.w3.org/2000/svg" xmlns:xlink="http://www.w3.org/1999/xlink" width="500" zoomAndPan="magnify" viewBox="0 0 375 374.999991" height="500" preserveAspectRatio="xMidYMid meet" version="1.0"><defs><g/><clipPath id="54d6d1c318"><path d="M 128.097656 115.304688 L 246 115.304688 L 246 196.304688 L 128.097656 196.304688 Z M 128.097656 115.304688 " clip-rule="nonzero"/></clipPath></defs><g fill="#000000" fill-opacity="1"><g transform="translate(63.269532, 232.294101)"><g><path d="M 8.140625 0.4375 C 7.003906 0.4375 5.953125 0.332031 4.984375 0.125 C 4.023438 -0.0820312 3.234375 -0.304688 2.609375 -0.546875 C 1.984375 -0.796875 1.671875 -0.9375 1.671875 -0.96875 L 1.375 -1.484375 C 1.394531 -1.648438 1.445312 -2.023438 1.53125 -2.609375 C 1.625 -3.191406 1.71875 -3.96875 1.8125 -4.9375 C 1.914062 -5.914062 1.96875 -6.859375 1.96875 -7.765625 L 5 -7.984375 C 5 -6.609375 5.117188 -5.550781 5.359375 -4.8125 C 5.609375 -4.070312 6.019531 -3.546875 6.59375 -3.234375 C 7.175781 -2.929688 8.015625 -2.78125 9.109375 -2.78125 C 10.285156 -2.78125 11.234375 -3.035156 11.953125 -3.546875 C 12.671875 -4.066406 13.03125 -4.785156 13.03125 -5.703125 C 13.03125 -6.515625 12.648438 -7.203125 11.890625 -7.765625 C 11.140625 -8.335938 9.976562 -9.003906 8.40625 -9.765625 C 8.300781 -9.816406 8.015625 -9.953125 7.546875 -10.171875 C 5.691406 -11.054688 4.25 -11.992188 3.21875 -12.984375 C 2.1875 -13.972656 1.671875 -15.253906 1.671875 -16.828125 C 1.671875 -18.234375 2.085938 -19.5 2.921875 -20.625 C 3.765625 -21.75 4.929688 -22.625 6.421875 -23.25 C 7.910156 -23.882812 9.601562 -24.203125 11.5 -24.203125 C 12.59375 -24.203125 13.597656 -24.125 14.515625 -23.96875 C 15.441406 -23.820312 16.179688 -23.664062 16.734375 -23.5 C 17.296875 -23.34375 17.648438 -23.242188 17.796875 -23.203125 L 18.0625 -22.71875 C 18.03125 -22.570312 17.953125 -22.195312 17.828125 -21.59375 C 17.710938 -20.988281 17.59375 -20.21875 17.46875 -19.28125 C 17.34375 -18.34375 17.242188 -17.378906 17.171875 -16.390625 L 14.4375 -16.171875 L 14.09375 -16.390625 C 14.09375 -16.460938 14.101562 -16.613281 14.125 -16.84375 C 14.15625 -17.082031 14.171875 -17.375 14.171875 -17.71875 C 14.171875 -18.832031 13.890625 -19.625 13.328125 -20.09375 C 12.773438 -20.5625 11.847656 -20.796875 10.546875 -20.796875 C 9.484375 -20.796875 8.613281 -20.539062 7.9375 -20.03125 C 7.257812 -19.53125 6.921875 -18.882812 6.921875 -18.09375 C 6.921875 -17.5 7.132812 -16.960938 7.5625 -16.484375 C 8 -16.003906 8.519531 -15.585938 9.125 -15.234375 C 9.726562 -14.890625 10.609375 -14.4375 11.765625 -13.875 C 13.148438 -13.207031 14.289062 -12.601562 15.1875 -12.0625 C 16.082031 -11.519531 16.835938 -10.828125 17.453125 -9.984375 C 18.078125 -9.148438 18.390625 -8.15625 18.390625 -7 C 18.390625 -5.507812 17.960938 -4.203125 17.109375 -3.078125 C 16.265625 -1.960938 15.070312 -1.097656 13.53125 -0.484375 C 11.988281 0.128906 10.191406 0.4375 8.140625 0.4375 Z M 8.140625 0.4375 "/></g></g></g><g fill="#000000" fill-opacity="1"><g transform="translate(83.210414, 232.294101)"><g><path d="M 7.625 0.4375 C 5.875 0.4375 4.585938 0.078125 3.765625 -0.640625 C 2.953125 -1.367188 2.546875 -2.523438 2.546875 -4.109375 L 2.546875 -12.359375 C 2.546875 -13.148438 2.410156 -13.671875 2.140625 -13.921875 C 1.867188 -14.179688 1.34375 -14.328125 0.5625 -14.359375 L 0.1875 -14.609375 L 0.4375 -16.421875 C 1.375 -16.867188 2.300781 -17.378906 3.21875 -17.953125 C 4.132812 -18.535156 4.894531 -19.050781 5.5 -19.5 C 6.101562 -19.945312 6.476562 -20.226562 6.625 -20.34375 L 7.65625 -19.828125 C 7.632812 -19.679688 7.578125 -19.320312 7.484375 -18.75 C 7.398438 -18.1875 7.320312 -17.488281 7.25 -16.65625 L 11.625 -16.765625 L 11.765625 -16.578125 L 11.390625 -14.09375 L 7.03125 -14.203125 C 6.882812 -12.054688 6.8125 -9.367188 6.8125 -6.140625 C 6.8125 -5.078125 6.992188 -4.3125 7.359375 -3.84375 C 7.734375 -3.375 8.335938 -3.140625 9.171875 -3.140625 C 9.617188 -3.140625 10.070312 -3.210938 10.53125 -3.359375 C 10.988281 -3.515625 11.273438 -3.613281 11.390625 -3.65625 L 11.875 -2.484375 C 11.726562 -2.328125 11.375 -2.015625 10.8125 -1.546875 C 10.257812 -1.078125 9.671875 -0.628906 9.046875 -0.203125 C 8.421875 0.222656 7.945312 0.4375 7.625 0.4375 Z M 7.625 0.4375 "/></g></g></g><g fill="#000000" fill-opacity="1"><g transform="translate(95.493105, 232.294101)"><g><path d="M 9.328125 0.4375 C 6.734375 0.4375 4.691406 -0.316406 3.203125 -1.828125 C 1.710938 -3.347656 0.96875 -5.425781 0.96875 -8.0625 C 0.96875 -9.84375 1.347656 -11.445312 2.109375 -12.875 C 2.867188 -14.300781 3.914062 -15.425781 5.25 -16.25 C 6.582031 -17.082031 8.0625 -17.5 9.6875 -17.5 C 13.832031 -17.5 15.90625 -15.40625 15.90625 -11.21875 C 15.90625 -10.46875 15.820312 -9.773438 15.65625 -9.140625 L 15.203125 -8.6875 L 5.625 -8.6875 C 5.644531 -6.894531 6.066406 -5.519531 6.890625 -4.5625 C 7.722656 -3.613281 8.878906 -3.140625 10.359375 -3.140625 C 11.640625 -3.140625 13.109375 -3.507812 14.765625 -4.25 L 15.015625 -4.109375 L 15.609375 -2.296875 C 14.703125 -1.609375 13.648438 -0.976562 12.453125 -0.40625 C 11.253906 0.15625 10.210938 0.4375 9.328125 0.4375 Z M 10.6875 -11.03125 C 10.988281 -11.050781 11.179688 -11.109375 11.265625 -11.203125 C 11.347656 -11.304688 11.390625 -11.53125 11.390625 -11.875 C 11.390625 -13.695312 10.613281 -14.609375 9.0625 -14.609375 C 8.101562 -14.609375 7.320312 -14.273438 6.71875 -13.609375 C 6.113281 -12.941406 5.75 -11.984375 5.625 -10.734375 Z M 10.6875 -11.03125 "/></g></g></g><g fill="#000000" fill-opacity="1"><g transform="translate(112.58529, 232.294101)"><g><path d="M 1.40625 6.46875 C 2.09375 6.425781 2.539062 6.253906 2.75 5.953125 C 2.96875 5.660156 3.085938 5.054688 3.109375 4.140625 C 3.234375 1.796875 3.296875 -0.0859375 3.296875 -1.515625 L 3.296875 -11.984375 C 3.296875 -12.828125 3.164062 -13.40625 2.90625 -13.71875 C 2.644531 -14.039062 2.171875 -14.203125 1.484375 -14.203125 L 1 -14.203125 L 0.84375 -14.390625 L 1.03125 -16.3125 C 2.414062 -16.507812 3.785156 -16.742188 5.140625 -17.015625 C 6.492188 -17.285156 7.367188 -17.457031 7.765625 -17.53125 L 8.109375 -17.171875 C 8.078125 -17.023438 8.007812 -16.707031 7.90625 -16.21875 C 7.8125 -15.738281 7.742188 -15.28125 7.703125 -14.84375 L 7.84375 -14.65625 C 9.863281 -16.457031 11.109375 -17.359375 11.578125 -17.359375 C 13.035156 -17.359375 14.316406 -17.023438 15.421875 -16.359375 C 16.535156 -15.691406 17.394531 -14.738281 18 -13.5 C 18.601562 -12.269531 18.90625 -10.851562 18.90625 -9.25 C 18.90625 -7.351562 18.484375 -5.675781 17.640625 -4.21875 C 16.804688 -2.757812 15.648438 -1.628906 14.171875 -0.828125 C 12.691406 -0.0234375 11.003906 0.375 9.109375 0.375 C 8.785156 0.375 8.460938 0.359375 8.140625 0.328125 C 7.816406 0.304688 7.59375 0.285156 7.46875 0.265625 L 7.515625 3.703125 C 7.515625 4.710938 7.59375 5.390625 7.75 5.734375 C 7.90625 6.078125 8.269531 6.25 8.84375 6.25 C 9.1875 6.25 9.488281 6.234375 9.75 6.203125 C 10.007812 6.179688 10.210938 6.171875 10.359375 6.171875 L 10.4375 6.328125 L 10.03125 8.578125 C 9.488281 8.578125 9.003906 8.566406 8.578125 8.546875 L 5.59375 8.515625 C 4.726562 8.515625 3.832031 8.539062 2.90625 8.59375 C 1.976562 8.65625 1.378906 8.703125 1.109375 8.734375 Z M 10.390625 -2.625 C 11.597656 -2.625 12.535156 -3.078125 13.203125 -3.984375 C 13.867188 -4.898438 14.203125 -6.1875 14.203125 -7.84375 C 14.203125 -9.644531 13.863281 -11.082031 13.1875 -12.15625 C 12.507812 -13.226562 11.617188 -13.765625 10.515625 -13.765625 C 10.160156 -13.765625 9.738281 -13.660156 9.25 -13.453125 C 8.757812 -13.242188 8.289062 -12.960938 7.84375 -12.609375 C 7.695312 -9.722656 7.625 -6.582031 7.625 -3.1875 C 7.945312 -3.0625 8.363281 -2.9375 8.875 -2.8125 C 9.394531 -2.6875 9.898438 -2.625 10.390625 -2.625 Z M 10.390625 -2.625 "/></g></g></g><g fill="#000000" fill-opacity="1"><g transform="translate(132.452175, 232.294101)"><g><path d="M 0.96875 -2.140625 C 1.601562 -2.210938 2.050781 -2.390625 2.3125 -2.671875 C 2.570312 -2.960938 2.703125 -3.453125 2.703125 -4.140625 L 2.703125 -22.125 C 2.703125 -22.914062 2.585938 -23.457031 2.359375 -23.75 C 2.140625 -24.050781 1.734375 -24.203125 1.140625 -24.203125 L 0.296875 -24.203125 L 0.140625 -24.34375 L 0.375 -26.265625 C 3.03125 -26.640625 5.519531 -27.035156 7.84375 -27.453125 L 8.109375 -26.75 C 7.859375 -26.476562 7.644531 -25.25 7.46875 -23.0625 C 7.300781 -20.882812 7.164062 -17.96875 7.0625 -14.3125 C 7.851562 -15.082031 8.757812 -15.804688 9.78125 -16.484375 C 10.8125 -17.160156 11.5625 -17.5 12.03125 -17.5 C 13.800781 -17.5 15.164062 -17.082031 16.125 -16.25 C 17.09375 -15.425781 17.578125 -14.253906 17.578125 -12.734375 C 17.578125 -12.140625 17.460938 -10.84375 17.234375 -8.84375 C 16.992188 -6.320312 16.875 -4.707031 16.875 -4 C 16.875 -3.351562 16.960938 -2.894531 17.140625 -2.625 C 17.328125 -2.351562 17.632812 -2.21875 18.0625 -2.21875 L 19.171875 -2.296875 L 19.234375 -2.140625 L 18.90625 0.109375 L 18.0625 0.078125 C 16.625 0.0234375 15.570312 0 14.90625 0 C 14 0 12.628906 0.0976562 10.796875 0.296875 L 10.984375 -2 C 11.597656 -2.125 12.039062 -2.34375 12.3125 -2.65625 C 12.59375 -2.976562 12.734375 -3.445312 12.734375 -4.0625 L 12.875 -10.46875 C 12.894531 -12.613281 12.09375 -13.6875 10.46875 -13.6875 C 10.050781 -13.6875 9.515625 -13.546875 8.859375 -13.265625 C 8.203125 -12.984375 7.59375 -12.609375 7.03125 -12.140625 C 6.976562 -10.703125 6.953125 -7.960938 6.953125 -3.921875 C 6.953125 -3.304688 7.035156 -2.875 7.203125 -2.625 C 7.378906 -2.375 7.664062 -2.25 8.0625 -2.25 L 9.03125 -2.296875 L 9.109375 -2.109375 L 8.734375 0.109375 C 8.410156 0.109375 8.160156 0.0976562 7.984375 0.078125 C 6.554688 0.0234375 5.472656 0 4.734375 0 C 3.304688 0 1.9375 0.0351562 0.625 0.109375 Z M 0.96875 -2.140625 "/></g></g></g><g fill="#000000" fill-opacity="1"><g transform="translate(152.541041, 232.294101)"><g><path d="M 9.328125 0.4375 C 6.734375 0.4375 4.691406 -0.316406 3.203125 -1.828125 C 1.710938 -3.347656 0.96875 -5.425781 0.96875 -8.0625 C 0.96875 -9.84375 1.347656 -11.445312 2.109375 -12.875 C 2.867188 -14.300781 3.914062 -15.425781 5.25 -16.25 C 6.582031 -17.082031 8.0625 -17.5 9.6875 -17.5 C 13.832031 -17.5 15.90625 -15.40625 15.90625 -11.21875 C 15.90625 -10.46875 15.820312 -9.773438 15.65625 -9.140625 L 15.203125 -8.6875 L 5.625 -8.6875 C 5.644531 -6.894531 6.066406 -5.519531 6.890625 -4.5625 C 7.722656 -3.613281 8.878906 -3.140625 10.359375 -3.140625 C 11.640625 -3.140625 13.109375 -3.507812 14.765625 -4.25 L 15.015625 -4.109375 L 15.609375 -2.296875 C 14.703125 -1.609375 13.648438 -0.976562 12.453125 -0.40625 C 11.253906 0.15625 10.210938 0.4375 9.328125 0.4375 Z M 10.6875 -11.03125 C 10.988281 -11.050781 11.179688 -11.109375 11.265625 -11.203125 C 11.347656 -11.304688 11.390625 -11.53125 11.390625 -11.875 C 11.390625 -13.695312 10.613281 -14.609375 9.0625 -14.609375 C 8.101562 -14.609375 7.320312 -14.273438 6.71875 -13.609375 C 6.113281 -12.941406 5.75 -11.984375 5.625 -10.734375 Z M 10.6875 -11.03125 "/></g></g></g><g fill="#000000" fill-opacity="1"><g transform="translate(169.633225, 232.294101)"><g><path d="M 11.796875 -2 C 12.421875 -2.125 12.859375 -2.34375 13.109375 -2.65625 C 13.367188 -2.976562 13.515625 -3.445312 13.546875 -4.0625 L 13.65625 -10.46875 C 13.65625 -11.550781 13.457031 -12.359375 13.0625 -12.890625 C 12.664062 -13.421875 12.0625 -13.6875 11.25 -13.6875 C 10.3125 -13.6875 9.222656 -13.21875 7.984375 -12.28125 C 7.742188 -7.84375 7.625 -5.066406 7.625 -3.953125 C 7.625 -3.335938 7.703125 -2.90625 7.859375 -2.65625 C 8.023438 -2.414062 8.316406 -2.296875 8.734375 -2.296875 L 9.734375 -2.328125 L 9.8125 -2.1875 L 9.4375 0.109375 C 9.164062 0.0859375 8.648438 0.0625 7.890625 0.03125 C 7.140625 0.0078125 6.359375 0 5.546875 0 C 4.753906 0 3.894531 0.03125 2.96875 0.09375 C 2.050781 0.15625 1.457031 0.195312 1.1875 0.21875 L 1.484375 -2.078125 C 2.191406 -2.148438 2.6875 -2.335938 2.96875 -2.640625 C 3.257812 -2.953125 3.40625 -3.453125 3.40625 -4.140625 L 3.40625 -11.984375 C 3.40625 -12.847656 3.273438 -13.429688 3.015625 -13.734375 C 2.753906 -14.046875 2.28125 -14.203125 1.59375 -14.203125 L 1.109375 -14.203125 L 0.96875 -14.390625 L 1.140625 -16.3125 C 2.546875 -16.507812 3.929688 -16.742188 5.296875 -17.015625 C 6.671875 -17.285156 7.554688 -17.457031 7.953125 -17.53125 L 8.25 -17.171875 C 8.195312 -17.023438 8.117188 -16.691406 8.015625 -16.171875 C 7.921875 -15.648438 7.863281 -15.128906 7.84375 -14.609375 L 7.984375 -14.46875 C 8.753906 -15.132812 9.640625 -15.804688 10.640625 -16.484375 C 11.640625 -17.160156 12.359375 -17.5 12.796875 -17.5 C 14.546875 -17.5 15.910156 -17.078125 16.890625 -16.234375 C 17.867188 -15.398438 18.359375 -14.234375 18.359375 -12.734375 C 18.359375 -12.359375 18.257812 -11.0625 18.0625 -8.84375 C 17.8125 -6.320312 17.6875 -4.707031 17.6875 -4 C 17.6875 -3.351562 17.773438 -2.894531 17.953125 -2.625 C 18.140625 -2.351562 18.429688 -2.21875 18.828125 -2.21875 C 19.078125 -2.21875 19.3125 -2.226562 19.53125 -2.25 C 19.757812 -2.28125 19.910156 -2.296875 19.984375 -2.296875 L 20.046875 -2.140625 L 19.71875 0.109375 C 19.425781 0.0859375 18.890625 0.0625 18.109375 0.03125 C 17.335938 0.0078125 16.539062 0 15.71875 0 C 15.132812 0 14.378906 0.0390625 13.453125 0.125 C 12.523438 0.21875 11.914062 0.273438 11.625 0.296875 Z M 11.796875 -2 "/></g></g></g><g fill="#000000" fill-opacity="1"><g transform="translate(190.42501, 232.294101)"><g/></g></g><g fill="#000000" fill-opacity="1"><g transform="translate(196.862323, 232.294101)"><g><path d="M 19.015625 0.59375 C 17.410156 0.59375 16.066406 -0.550781 14.984375 -2.84375 L 11.765625 -9.359375 L 9.140625 -9.359375 L 9.0625 -5.1875 C 9.0625 -4.320312 9.125 -3.695312 9.25 -3.3125 C 9.375 -2.925781 9.609375 -2.671875 9.953125 -2.546875 C 10.296875 -2.429688 10.890625 -2.359375 11.734375 -2.328125 L 11.84375 -2.109375 L 11.5 0.140625 C 11.0625 0.117188 10.285156 0.09375 9.171875 0.0625 C 8.066406 0.0390625 7.046875 0.03125 6.109375 0.03125 C 5.191406 0.03125 4.25 0.0546875 3.28125 0.109375 C 2.320312 0.160156 1.695312 0.195312 1.40625 0.21875 L 1.734375 -2.21875 C 2.773438 -2.34375 3.472656 -2.613281 3.828125 -3.03125 C 4.179688 -3.445312 4.359375 -4.1875 4.359375 -5.25 L 4.359375 -19.578125 C 4.359375 -20.285156 4.28125 -20.765625 4.125 -21.015625 C 3.96875 -21.265625 3.65625 -21.390625 3.1875 -21.390625 C 2.914062 -21.390625 2.65625 -21.375 2.40625 -21.34375 C 2.15625 -21.320312 1.992188 -21.3125 1.921875 -21.3125 L 1.703125 -21.609375 L 2.03125 -23.828125 C 2.375 -23.828125 3.007812 -23.8125 3.9375 -23.78125 C 4.863281 -23.757812 5.769531 -23.75 6.65625 -23.75 C 7.644531 -23.75 8.710938 -23.765625 9.859375 -23.796875 C 11.003906 -23.835938 11.800781 -23.875 12.25 -23.90625 C 15.0625 -23.90625 17.210938 -23.359375 18.703125 -22.265625 C 20.191406 -21.179688 20.9375 -19.617188 20.9375 -17.578125 C 20.9375 -16.117188 20.503906 -14.785156 19.640625 -13.578125 C 18.785156 -12.367188 17.554688 -11.359375 15.953125 -10.546875 L 19.203125 -5.25 C 19.890625 -4.113281 20.550781 -3.300781 21.1875 -2.8125 C 21.832031 -2.320312 22.550781 -2.078125 23.34375 -2.078125 L 23.609375 -1.734375 L 23.34375 0.1875 Z M 12.578125 -12.203125 C 13.390625 -12.554688 14.128906 -13.070312 14.796875 -13.75 C 15.460938 -14.425781 15.796875 -15.476562 15.796875 -16.90625 C 15.796875 -18.257812 15.335938 -19.269531 14.421875 -19.9375 C 13.515625 -20.601562 12.113281 -20.9375 10.21875 -20.9375 C 9.96875 -20.9375 9.796875 -20.882812 9.703125 -20.78125 C 9.617188 -20.6875 9.566406 -20.46875 9.546875 -20.125 C 9.398438 -17.582031 9.300781 -15.066406 9.25 -12.578125 Z M 12.578125 -12.203125 "/></g></g></g><g fill="#000000" fill-opacity="1"><g transform="translate(220.576803, 232.294101)"><g><path d="M 2.78125 -12.46875 C 2.78125 -13.113281 2.679688 -13.578125 2.484375 -13.859375 C 2.285156 -14.140625 1.960938 -14.28125 1.515625 -14.28125 C 1.296875 -14.28125 1.097656 -14.265625 0.921875 -14.234375 C 0.753906 -14.210938 0.644531 -14.191406 0.59375 -14.171875 L 0.8125 -16.3125 C 2.09375 -16.488281 3.421875 -16.707031 4.796875 -16.96875 C 6.179688 -17.226562 7.085938 -17.40625 7.515625 -17.5 L 7.84375 -16.90625 C 7.570312 -16.289062 7.335938 -14.941406 7.140625 -12.859375 C 6.941406 -10.773438 6.84375 -8.625 6.84375 -6.40625 C 6.84375 -5.394531 7.03125 -4.640625 7.40625 -4.140625 C 7.789062 -3.648438 8.378906 -3.40625 9.171875 -3.40625 C 9.671875 -3.40625 10.160156 -3.519531 10.640625 -3.75 C 11.117188 -3.988281 11.703125 -4.34375 12.390625 -4.8125 L 12.390625 -12.4375 C 12.390625 -13.125 12.285156 -13.585938 12.078125 -13.828125 C 11.867188 -14.078125 11.441406 -14.21875 10.796875 -14.25 L 10.140625 -14.203125 L 10.4375 -16.3125 C 11.769531 -16.488281 13.144531 -16.695312 14.5625 -16.9375 C 15.976562 -17.1875 16.894531 -17.347656 17.3125 -17.421875 L 17.65625 -16.828125 C 17.375 -16.265625 17.132812 -14.820312 16.9375 -12.5 C 16.75 -10.1875 16.65625 -7.632812 16.65625 -4.84375 C 16.65625 -4.375 16.773438 -4.003906 17.015625 -3.734375 C 17.265625 -3.460938 17.585938 -3.328125 17.984375 -3.328125 C 18.253906 -3.328125 18.519531 -3.375 18.78125 -3.46875 C 19.039062 -3.570312 19.253906 -3.671875 19.421875 -3.765625 C 19.597656 -3.867188 19.710938 -3.929688 19.765625 -3.953125 L 20.3125 -3.21875 C 20.21875 -3.039062 19.972656 -2.6875 19.578125 -2.15625 C 19.179688 -1.632812 18.695312 -1.097656 18.125 -0.546875 C 17.5625 -0.00390625 17.019531 0.320312 16.5 0.4375 C 14.257812 0.4375 13.003906 -0.507812 12.734375 -2.40625 L 12.4375 -2.546875 C 11.5 -1.691406 10.640625 -0.984375 9.859375 -0.421875 C 9.078125 0.128906 8.550781 0.40625 8.28125 0.40625 C 6.40625 0.40625 4.972656 0.0078125 3.984375 -0.78125 C 3.003906 -1.570312 2.515625 -2.71875 2.515625 -4.21875 Z M 2.78125 -12.46875 "/></g></g></g><g fill="#000000" fill-opacity="1"><g transform="translate(240.776653, 232.294101)"><g><path d="M 11.796875 -2 C 12.390625 -2.125 12.816406 -2.34375 13.078125 -2.65625 C 13.335938 -2.976562 13.476562 -3.445312 13.5 -4.0625 L 13.609375 -10.46875 C 13.609375 -11.550781 13.410156 -12.359375 13.015625 -12.890625 C 12.628906 -13.421875 12.03125 -13.6875 11.21875 -13.6875 C 10.28125 -13.6875 9.191406 -13.21875 7.953125 -12.28125 C 7.703125 -7.84375 7.578125 -5.066406 7.578125 -3.953125 C 7.578125 -3.316406 7.65625 -2.878906 7.8125 -2.640625 C 7.976562 -2.410156 8.269531 -2.296875 8.6875 -2.296875 L 9.6875 -2.328125 L 9.765625 -2.1875 L 9.390625 0.109375 C 9.117188 0.0859375 8.609375 0.0625 7.859375 0.03125 C 7.109375 0.0078125 6.328125 0 5.515625 0 C 4.503906 0 3.582031 0.0078125 2.75 0.03125 C 1.925781 0.0625 1.378906 0.0859375 1.109375 0.109375 L 1.4375 -2.140625 C 2.15625 -2.191406 2.65625 -2.363281 2.9375 -2.65625 C 3.21875 -2.957031 3.359375 -3.453125 3.359375 -4.140625 L 3.359375 -11.984375 C 3.359375 -12.847656 3.226562 -13.429688 2.96875 -13.734375 C 2.71875 -14.046875 2.242188 -14.203125 1.546875 -14.203125 L 1.078125 -14.203125 L 0.921875 -14.390625 L 1.109375 -16.3125 C 2.492188 -16.507812 3.875 -16.742188 5.25 -17.015625 C 6.632812 -17.285156 7.523438 -17.457031 7.921875 -17.53125 L 8.21875 -17.171875 C 8.164062 -17.023438 8.085938 -16.691406 7.984375 -16.171875 C 7.890625 -15.648438 7.832031 -15.128906 7.8125 -14.609375 L 7.921875 -14.5 C 8.785156 -15.195312 9.703125 -15.867188 10.671875 -16.515625 C 11.648438 -17.171875 12.347656 -17.5 12.765625 -17.5 C 14.148438 -17.5 15.28125 -17.238281 16.15625 -16.71875 C 17.03125 -16.207031 17.640625 -15.445312 17.984375 -14.4375 C 18.671875 -15.050781 19.550781 -15.710938 20.625 -16.421875 C 21.695312 -17.140625 22.457031 -17.5 22.90625 -17.5 C 24.65625 -17.5 26.019531 -17.078125 27 -16.234375 C 27.988281 -15.398438 28.484375 -14.234375 28.484375 -12.734375 C 28.484375 -12.140625 28.375 -10.84375 28.15625 -8.84375 C 27.90625 -6.320312 27.78125 -4.707031 27.78125 -4 C 27.78125 -3.351562 27.875 -2.894531 28.0625 -2.625 C 28.25 -2.351562 28.550781 -2.21875 28.96875 -2.21875 C 29.1875 -2.21875 29.410156 -2.226562 29.640625 -2.25 C 29.878906 -2.28125 30.039062 -2.296875 30.125 -2.296875 L 30.1875 -2.140625 L 29.828125 0.109375 C 29.523438 0.0859375 28.976562 0.0625 28.1875 0.03125 C 27.40625 0.0078125 26.601562 0 25.78125 0 C 25.195312 0 24.453125 0.0195312 23.546875 0.0625 C 22.648438 0.113281 22.066406 0.15625 21.796875 0.1875 L 22.046875 -2.109375 C 22.617188 -2.179688 23.019531 -2.363281 23.25 -2.65625 C 23.488281 -2.957031 23.617188 -3.425781 23.640625 -4.0625 L 23.75 -10.46875 C 23.78125 -12.613281 22.976562 -13.6875 21.34375 -13.6875 C 20.40625 -13.6875 19.347656 -13.234375 18.171875 -12.328125 L 17.6875 -4 C 17.6875 -3.351562 17.773438 -2.894531 17.953125 -2.625 C 18.140625 -2.351562 18.429688 -2.21875 18.828125 -2.21875 C 19.054688 -2.21875 19.269531 -2.226562 19.46875 -2.25 C 19.664062 -2.28125 19.800781 -2.296875 19.875 -2.296875 L 19.9375 -2.140625 L 19.578125 0.109375 C 19.304688 0.0859375 18.785156 0.0625 18.015625 0.03125 C 17.253906 0.0078125 16.476562 0 15.6875 0 C 15.09375 0 14.328125 0.0390625 13.390625 0.125 C 12.453125 0.21875 11.835938 0.273438 11.546875 0.296875 Z M 11.796875 -2 "/></g></g></g><g fill="#000000" fill-opacity="1"><g transform="translate(271.77936, 232.294101)"><g><path d="M 1.40625 6.46875 C 2.09375 6.425781 2.539062 6.253906 2.75 5.953125 C 2.96875 5.660156 3.085938 5.054688 3.109375 4.140625 C 3.234375 1.796875 3.296875 -0.0859375 3.296875 -1.515625 L 3.296875 -11.984375 C 3.296875 -12.828125 3.164062 -13.40625 2.90625 -13.71875 C 2.644531 -14.039062 2.171875 -14.203125 1.484375 -14.203125 L 1 -14.203125 L 0.84375 -14.390625 L 1.03125 -16.3125 C 2.414062 -16.507812 3.785156 -16.742188 5.140625 -17.015625 C 6.492188 -17.285156 7.367188 -17.457031 7.765625 -17.53125 L 8.109375 -17.171875 C 8.078125 -17.023438 8.007812 -16.707031 7.90625 -16.21875 C 7.8125 -15.738281 7.742188 -15.28125 7.703125 -14.84375 L 7.84375 -14.65625 C 9.863281 -16.457031 11.109375 -17.359375 11.578125 -17.359375 C 13.035156 -17.359375 14.316406 -17.023438 15.421875 -16.359375 C 16.535156 -15.691406 17.394531 -14.738281 18 -13.5 C 18.601562 -12.269531 18.90625 -10.851562 18.90625 -9.25 C 18.90625 -7.351562 18.484375 -5.675781 17.640625 -4.21875 C 16.804688 -2.757812 15.648438 -1.628906 14.171875 -0.828125 C 12.691406 -0.0234375 11.003906 0.375 9.109375 0.375 C 8.785156 0.375 8.460938 0.359375 8.140625 0.328125 C 7.816406 0.304688 7.59375 0.285156 7.46875 0.265625 L 7.515625 3.703125 C 7.515625 4.710938 7.59375 5.390625 7.75 5.734375 C 7.90625 6.078125 8.269531 6.25 8.84375 6.25 C 9.1875 6.25 9.488281 6.234375 9.75 6.203125 C 10.007812 6.179688 10.210938 6.171875 10.359375 6.171875 L 10.4375 6.328125 L 10.03125 8.578125 C 9.488281 8.578125 9.003906 8.566406 8.578125 8.546875 L 5.59375 8.515625 C 4.726562 8.515625 3.832031 8.539062 2.90625 8.59375 C 1.976562 8.65625 1.378906 8.703125 1.109375 8.734375 Z M 10.390625 -2.625 C 11.597656 -2.625 12.535156 -3.078125 13.203125 -3.984375 C 13.867188 -4.898438 14.203125 -6.1875 14.203125 -7.84375 C 14.203125 -9.644531 13.863281 -11.082031 13.1875 -12.15625 C 12.507812 -13.226562 11.617188 -13.765625 10.515625 -13.765625 C 10.160156 -13.765625 9.738281 -13.660156 9.25 -13.453125 C 8.757812 -13.242188 8.289062 -12.960938 7.84375 -12.609375 C 7.695312 -9.722656 7.625 -6.582031 7.625 -3.1875 C 7.945312 -3.0625 8.363281 -2.9375 8.875 -2.8125 C 9.394531 -2.6875 9.898438 -2.625 10.390625 -2.625 Z M 10.390625 -2.625 "/></g></g></g><g fill="#000000" fill-opacity="1"><g transform="translate(291.646256, 232.294101)"><g><path d="M 0.96875 -2.140625 C 1.601562 -2.210938 2.050781 -2.390625 2.3125 -2.671875 C 2.570312 -2.960938 2.703125 -3.453125 2.703125 -4.140625 L 2.703125 -22.125 C 2.703125 -22.914062 2.585938 -23.457031 2.359375 -23.75 C 2.140625 -24.050781 1.734375 -24.203125 1.140625 -24.203125 L 0.296875 -24.203125 L 0.140625 -24.34375 L 0.375 -26.265625 C 3.03125 -26.640625 5.519531 -27.035156 7.84375 -27.453125 L 8.109375 -26.75 C 7.859375 -26.476562 7.644531 -25.25 7.46875 -23.0625 C 7.300781 -20.882812 7.164062 -17.96875 7.0625 -14.3125 C 7.851562 -15.082031 8.757812 -15.804688 9.78125 -16.484375 C 10.8125 -17.160156 11.5625 -17.5 12.03125 -17.5 C 13.800781 -17.5 15.164062 -17.082031 16.125 -16.25 C 17.09375 -15.425781 17.578125 -14.253906 17.578125 -12.734375 C 17.578125 -12.140625 17.460938 -10.84375 17.234375 -8.84375 C 16.992188 -6.320312 16.875 -4.707031 16.875 -4 C 16.875 -3.351562 16.960938 -2.894531 17.140625 -2.625 C 17.328125 -2.351562 17.632812 -2.21875 18.0625 -2.21875 L 19.171875 -2.296875 L 19.234375 -2.140625 L 18.90625 0.109375 L 18.0625 0.078125 C 16.625 0.0234375 15.570312 0 14.90625 0 C 14 0 12.628906 0.0976562 10.796875 0.296875 L 10.984375 -2 C 11.597656 -2.125 12.039062 -2.34375 12.3125 -2.65625 C 12.59375 -2.976562 12.734375 -3.445312 12.734375 -4.0625 L 12.875 -10.46875 C 12.894531 -12.613281 12.09375 -13.6875 10.46875 -13.6875 C 10.050781 -13.6875 9.515625 -13.546875 8.859375 -13.265625 C 8.203125 -12.984375 7.59375 -12.609375 7.03125 -12.140625 C 6.976562 -10.703125 6.953125 -7.960938 6.953125 -3.921875 C 6.953125 -3.304688 7.035156 -2.875 7.203125 -2.625 C 7.378906 -2.375 7.664062 -2.25 8.0625 -2.25 L 9.03125 -2.296875 L 9.109375 -2.109375 L 8.734375 0.109375 C 8.410156 0.109375 8.160156 0.0976562 7.984375 0.078125 C 6.554688 0.0234375 5.472656 0 4.734375 0 C 3.304688 0 1.9375 0.0351562 0.625 0.109375 Z M 0.96875 -2.140625 "/></g></g></g><g fill="#cb6ce6" fill-opacity="1"><g transform="translate(134.135997, 255.49409)"><g><path d="M 15.515625 -12.65625 C 15.804688 -12.65625 16.070312 -12.539062 16.3125 -12.3125 C 16.5625 -12.09375 16.6875 -11.816406 16.6875 -11.484375 C 16.6875 -11.378906 16.664062 -11.257812 16.625 -11.125 L 13.078125 -0.6875 C 13.015625 -0.476562 12.890625 -0.3125 12.703125 -0.1875 C 12.523438 -0.0703125 12.328125 -0.0078125 12.109375 0 C 11.898438 0 11.695312 -0.0546875 11.5 -0.171875 C 11.3125 -0.296875 11.160156 -0.472656 11.046875 -0.703125 L 8.5 -6.515625 L 5.921875 -0.703125 C 5.816406 -0.472656 5.664062 -0.296875 5.46875 -0.171875 C 5.28125 -0.0546875 5.078125 0 4.859375 0 C 4.640625 -0.0078125 4.441406 -0.0703125 4.265625 -0.1875 C 4.085938 -0.3125 3.960938 -0.476562 3.890625 -0.6875 L 0.34375 -11.125 C 0.300781 -11.257812 0.28125 -11.378906 0.28125 -11.484375 C 0.28125 -11.816406 0.40625 -12.09375 0.65625 -12.3125 C 0.90625 -12.539062 1.175781 -12.65625 1.46875 -12.65625 C 1.71875 -12.65625 1.9375 -12.59375 2.125 -12.46875 C 2.3125 -12.34375 2.441406 -12.171875 2.515625 -11.953125 L 5.203125 -3.8125 L 7.546875 -9.4375 C 7.640625 -9.644531 7.773438 -9.8125 7.953125 -9.9375 C 8.128906 -10.070312 8.332031 -10.128906 8.5625 -10.109375 C 8.789062 -10.128906 8.992188 -10.070312 9.171875 -9.9375 C 9.347656 -9.8125 9.484375 -9.644531 9.578125 -9.4375 L 11.796875 -3.875 L 14.453125 -11.953125 C 14.523438 -12.171875 14.660156 -12.34375 14.859375 -12.46875 C 15.054688 -12.59375 15.273438 -12.65625 15.515625 -12.65625 Z M 15.515625 -12.65625 "/></g></g></g><g fill="#cb6ce6" fill-opacity="1"><g transform="translate(151.631943, 255.49409)"><g><path d="M 9.8125 -5.046875 C 9.800781 -4.753906 9.6875 -4.515625 9.46875 -4.328125 C 9.25 -4.148438 9 -4.0625 8.71875 -4.0625 L 2.765625 -4.0625 C 2.910156 -3.351562 3.238281 -2.796875 3.75 -2.390625 C 4.269531 -1.992188 4.859375 -1.796875 5.515625 -1.796875 C 6.003906 -1.796875 6.382812 -1.835938 6.65625 -1.921875 C 6.9375 -2.015625 7.15625 -2.113281 7.3125 -2.21875 C 7.476562 -2.320312 7.59375 -2.394531 7.65625 -2.4375 C 7.863281 -2.539062 8.066406 -2.59375 8.265625 -2.59375 C 8.515625 -2.59375 8.726562 -2.5 8.90625 -2.3125 C 9.09375 -2.132812 9.1875 -1.925781 9.1875 -1.6875 C 9.1875 -1.363281 9.015625 -1.070312 8.671875 -0.8125 C 8.335938 -0.53125 7.890625 -0.289062 7.328125 -0.09375 C 6.765625 0.09375 6.191406 0.1875 5.609375 0.1875 C 4.609375 0.1875 3.734375 -0.0195312 2.984375 -0.4375 C 2.234375 -0.863281 1.648438 -1.445312 1.234375 -2.1875 C 0.828125 -2.925781 0.625 -3.757812 0.625 -4.6875 C 0.625 -5.71875 0.835938 -6.617188 1.265625 -7.390625 C 1.703125 -8.171875 2.273438 -8.769531 2.984375 -9.1875 C 3.691406 -9.601562 4.445312 -9.8125 5.25 -9.8125 C 6.039062 -9.8125 6.785156 -9.59375 7.484375 -9.15625 C 8.191406 -8.726562 8.753906 -8.144531 9.171875 -7.40625 C 9.597656 -6.675781 9.8125 -5.890625 9.8125 -5.046875 Z M 5.25 -7.828125 C 3.863281 -7.828125 3.046875 -7.175781 2.796875 -5.875 L 7.5 -5.875 L 7.5 -6 C 7.457031 -6.5 7.210938 -6.925781 6.765625 -7.28125 C 6.328125 -7.644531 5.820312 -7.828125 5.25 -7.828125 Z M 5.25 -7.828125 "/></g></g></g><g fill="#cb6ce6" fill-opacity="1"><g transform="translate(162.593909, 255.49409)"><g><path d="M 6.15625 -9.8125 C 6.976562 -9.8125 7.722656 -9.597656 8.390625 -9.171875 C 9.066406 -8.742188 9.597656 -8.148438 9.984375 -7.390625 C 10.378906 -6.640625 10.578125 -5.785156 10.578125 -4.828125 C 10.578125 -3.867188 10.382812 -3.003906 10 -2.234375 C 9.625 -1.472656 9.101562 -0.878906 8.4375 -0.453125 C 7.769531 -0.0234375 7.035156 0.1875 6.234375 0.1875 C 5.648438 0.1875 5.101562 0.0703125 4.59375 -0.15625 C 4.082031 -0.394531 3.660156 -0.6875 3.328125 -1.03125 L 3.328125 -0.921875 C 3.328125 -0.609375 3.222656 -0.34375 3.015625 -0.125 C 2.816406 0.0820312 2.5625 0.1875 2.25 0.1875 C 1.9375 0.1875 1.675781 0.0820312 1.46875 -0.125 C 1.269531 -0.332031 1.171875 -0.597656 1.171875 -0.921875 L 1.171875 -12.21875 C 1.171875 -12.53125 1.269531 -12.789062 1.46875 -13 C 1.675781 -13.207031 1.9375 -13.3125 2.25 -13.3125 C 2.5625 -13.3125 2.816406 -13.207031 3.015625 -13 C 3.222656 -12.789062 3.328125 -12.53125 3.328125 -12.21875 L 3.328125 -8.453125 C 3.617188 -8.816406 4.019531 -9.132812 4.53125 -9.40625 C 5.050781 -9.675781 5.59375 -9.8125 6.15625 -9.8125 Z M 5.890625 -1.796875 C 6.648438 -1.796875 7.273438 -2.082031 7.765625 -2.65625 C 8.265625 -3.238281 8.515625 -3.960938 8.515625 -4.828125 C 8.515625 -5.691406 8.269531 -6.40625 7.78125 -6.96875 C 7.300781 -7.539062 6.671875 -7.828125 5.890625 -7.828125 C 5.109375 -7.828125 4.46875 -7.539062 3.96875 -6.96875 C 3.476562 -6.40625 3.234375 -5.691406 3.234375 -4.828125 C 3.234375 -3.960938 3.476562 -3.238281 3.96875 -2.65625 C 4.46875 -2.082031 5.109375 -1.796875 5.890625 -1.796875 Z M 5.890625 -1.796875 "/></g></g></g><g fill="#cb6ce6" fill-opacity="1"><g transform="translate(174.329873, 255.49409)"><g/></g></g><g fill="#cb6ce6" fill-opacity="1"><g transform="translate(179.891864, 255.49409)"><g><path d="M 6.75 -12.59375 C 7.875 -12.59375 8.84375 -12.3125 9.65625 -11.75 C 10.46875 -11.195312 11.085938 -10.441406 11.515625 -9.484375 C 11.941406 -8.535156 12.15625 -7.472656 12.15625 -6.296875 C 12.15625 -5.117188 11.941406 -4.050781 11.515625 -3.09375 C 11.085938 -2.144531 10.46875 -1.390625 9.65625 -0.828125 C 8.84375 -0.273438 7.875 0 6.75 0 L 2.453125 0 C 2.140625 0 1.875 -0.101562 1.65625 -0.3125 C 1.445312 -0.519531 1.34375 -0.78125 1.34375 -1.09375 L 1.34375 -11.5 C 1.34375 -11.8125 1.445312 -12.070312 1.65625 -12.28125 C 1.875 -12.488281 2.140625 -12.59375 2.453125 -12.59375 Z M 6.5625 -2.0625 C 7.644531 -2.0625 8.457031 -2.460938 9 -3.265625 C 9.539062 -4.066406 9.8125 -5.078125 9.8125 -6.296875 C 9.8125 -7.523438 9.535156 -8.535156 8.984375 -9.328125 C 8.441406 -10.128906 7.632812 -10.53125 6.5625 -10.53125 L 3.59375 -10.53125 L 3.59375 -2.0625 Z M 6.5625 -2.0625 "/></g></g></g><g fill="#cb6ce6" fill-opacity="1"><g transform="translate(193.28382, 255.49409)"><g><path d="M 9.8125 -5.046875 C 9.800781 -4.753906 9.6875 -4.515625 9.46875 -4.328125 C 9.25 -4.148438 9 -4.0625 8.71875 -4.0625 L 2.765625 -4.0625 C 2.910156 -3.351562 3.238281 -2.796875 3.75 -2.390625 C 4.269531 -1.992188 4.859375 -1.796875 5.515625 -1.796875 C 6.003906 -1.796875 6.382812 -1.835938 6.65625 -1.921875 C 6.9375 -2.015625 7.15625 -2.113281 7.3125 -2.21875 C 7.476562 -2.320312 7.59375 -2.394531 7.65625 -2.4375 C 7.863281 -2.539062 8.066406 -2.59375 8.265625 -2.59375 C 8.515625 -2.59375 8.726562 -2.5 8.90625 -2.3125 C 9.09375 -2.132812 9.1875 -1.925781 9.1875 -1.6875 C 9.1875 -1.363281 9.015625 -1.070312 8.671875 -0.8125 C 8.335938 -0.53125 7.890625 -0.289062 7.328125 -0.09375 C 6.765625 0.09375 6.191406 0.1875 5.609375 0.1875 C 4.609375 0.1875 3.734375 -0.0195312 2.984375 -0.4375 C 2.234375 -0.863281 1.648438 -1.445312 1.234375 -2.1875 C 0.828125 -2.925781 0.625 -3.757812 0.625 -4.6875 C 0.625 -5.71875 0.835938 -6.617188 1.265625 -7.390625 C 1.703125 -8.171875 2.273438 -8.769531 2.984375 -9.1875 C 3.691406 -9.601562 4.445312 -9.8125 5.25 -9.8125 C 6.039062 -9.8125 6.785156 -9.59375 7.484375 -9.15625 C 8.191406 -8.726562 8.753906 -8.144531 9.171875 -7.40625 C 9.597656 -6.675781 9.8125 -5.890625 9.8125 -5.046875 Z M 5.25 -7.828125 C 3.863281 -7.828125 3.046875 -7.175781 2.796875 -5.875 L 7.5 -5.875 L 7.5 -6 C 7.457031 -6.5 7.210938 -6.925781 6.765625 -7.28125 C 6.328125 -7.644531 5.820312 -7.828125 5.25 -7.828125 Z M 5.25 -7.828125 "/></g></g></g><g fill="#cb6ce6" fill-opacity="1"><g transform="translate(204.245783, 255.49409)"><g><path d="M 0.609375 -1.5 C 0.503906 -1.632812 0.453125 -1.8125 0.453125 -2.03125 C 0.453125 -2.34375 0.609375 -2.609375 0.921875 -2.828125 C 1.085938 -2.929688 1.257812 -2.984375 1.4375 -2.984375 C 1.6875 -2.984375 1.925781 -2.867188 2.15625 -2.640625 C 2.519531 -2.273438 2.894531 -2 3.28125 -1.8125 C 3.675781 -1.632812 4.148438 -1.546875 4.703125 -1.546875 C 5.640625 -1.585938 6.109375 -1.941406 6.109375 -2.609375 C 6.109375 -2.953125 5.945312 -3.210938 5.625 -3.390625 C 5.300781 -3.578125 4.804688 -3.757812 4.140625 -3.9375 C 3.441406 -4.132812 2.875 -4.328125 2.4375 -4.515625 C 2 -4.710938 1.617188 -5.003906 1.296875 -5.390625 C 0.984375 -5.773438 0.828125 -6.300781 0.828125 -6.96875 C 0.828125 -7.539062 0.988281 -8.039062 1.3125 -8.46875 C 1.644531 -8.894531 2.078125 -9.222656 2.609375 -9.453125 C 3.148438 -9.691406 3.71875 -9.8125 4.3125 -9.8125 C 4.925781 -9.8125 5.539062 -9.695312 6.15625 -9.46875 C 6.769531 -9.238281 7.25 -8.898438 7.59375 -8.453125 C 7.75 -8.265625 7.828125 -8.050781 7.828125 -7.8125 C 7.828125 -7.53125 7.710938 -7.300781 7.484375 -7.125 C 7.316406 -7 7.125 -6.9375 6.90625 -6.9375 C 6.644531 -6.9375 6.429688 -7.019531 6.265625 -7.1875 C 6.046875 -7.445312 5.765625 -7.65625 5.421875 -7.8125 C 5.078125 -7.96875 4.691406 -8.046875 4.265625 -8.046875 C 3.347656 -8.046875 2.890625 -7.71875 2.890625 -7.0625 C 2.890625 -6.789062 2.972656 -6.570312 3.140625 -6.40625 C 3.316406 -6.25 3.53125 -6.125 3.78125 -6.03125 C 4.039062 -5.945312 4.40625 -5.835938 4.875 -5.703125 C 5.519531 -5.523438 6.054688 -5.335938 6.484375 -5.140625 C 6.921875 -4.953125 7.289062 -4.660156 7.59375 -4.265625 C 7.894531 -3.867188 8.046875 -3.347656 8.046875 -2.703125 C 8.046875 -2.109375 7.867188 -1.59375 7.515625 -1.15625 C 7.171875 -0.71875 6.722656 -0.382812 6.171875 -0.15625 C 5.628906 0.0703125 5.070312 0.1875 4.5 0.1875 C 3.707031 0.1875 2.96875 0.0546875 2.28125 -0.203125 C 1.601562 -0.472656 1.046875 -0.90625 0.609375 -1.5 Z M 0.609375 -1.5 "/></g></g></g><g fill="#cb6ce6" fill-opacity="1"><g transform="translate(213.443754, 255.49409)"><g><path d="M 3.203125 -1.09375 C 3.203125 -0.78125 3.097656 -0.519531 2.890625 -0.3125 C 2.691406 -0.101562 2.4375 0 2.125 0 C 1.8125 0 1.550781 -0.101562 1.34375 -0.3125 C 1.144531 -0.519531 1.046875 -0.78125 1.046875 -1.09375 L 1.046875 -8.53125 C 1.046875 -8.84375 1.144531 -9.101562 1.34375 -9.3125 C 1.550781 -9.519531 1.8125 -9.625 2.125 -9.625 C 2.4375 -9.625 2.691406 -9.519531 2.890625 -9.3125 C 3.097656 -9.101562 3.203125 -8.84375 3.203125 -8.53125 Z M 2.109375 -10.796875 C 1.703125 -10.796875 1.410156 -10.863281 1.234375 -11 C 1.066406 -11.132812 0.984375 -11.367188 0.984375 -11.703125 L 0.984375 -12.046875 C 0.984375 -12.378906 1.070312 -12.609375 1.25 -12.734375 C 1.4375 -12.867188 1.726562 -12.9375 2.125 -12.9375 C 2.539062 -12.9375 2.832031 -12.867188 3 -12.734375 C 3.164062 -12.609375 3.25 -12.378906 3.25 -12.046875 L 3.25 -11.703125 C 3.25 -11.347656 3.160156 -11.109375 2.984375 -10.984375 C 2.816406 -10.859375 2.523438 -10.796875 2.109375 -10.796875 Z M 2.109375 -10.796875 "/></g></g></g><g fill="#cb6ce6" fill-opacity="1"><g transform="translate(218.213742, 255.49409)"><g><path d="M 9.140625 -9.8125 C 9.453125 -9.8125 9.707031 -9.707031 9.90625 -9.5 C 10.113281 -9.300781 10.21875 -9.039062 10.21875 -8.71875 L 10.21875 -0.703125 C 10.21875 0.765625 9.765625 1.847656 8.859375 2.546875 C 7.953125 3.242188 6.804688 3.59375 5.421875 3.59375 C 5.054688 3.59375 4.554688 3.53125 3.921875 3.40625 C 3.296875 3.289062 2.851562 3.175781 2.59375 3.0625 C 2 2.8125 1.703125 2.460938 1.703125 2.015625 C 1.703125 1.929688 1.722656 1.835938 1.765625 1.734375 C 1.835938 1.460938 1.957031 1.257812 2.125 1.125 C 2.300781 0.988281 2.492188 0.921875 2.703125 0.921875 C 2.816406 0.921875 2.929688 0.9375 3.046875 0.96875 C 3.085938 0.976562 3.378906 1.085938 3.921875 1.296875 C 4.472656 1.515625 4.972656 1.625 5.421875 1.625 C 6.304688 1.625 6.96875 1.445312 7.40625 1.09375 C 7.84375 0.738281 8.0625 0.238281 8.0625 -0.40625 L 8.0625 -1.28125 C 7.800781 -0.90625 7.398438 -0.566406 6.859375 -0.265625 C 6.328125 0.0351562 5.753906 0.1875 5.140625 0.1875 C 4.304688 0.1875 3.539062 -0.0234375 2.84375 -0.453125 C 2.15625 -0.878906 1.613281 -1.46875 1.21875 -2.21875 C 0.820312 -2.976562 0.625 -3.84375 0.625 -4.8125 C 0.625 -5.769531 0.816406 -6.628906 1.203125 -7.390625 C 1.597656 -8.148438 2.132812 -8.742188 2.8125 -9.171875 C 3.488281 -9.597656 4.242188 -9.8125 5.078125 -9.8125 C 5.691406 -9.8125 6.257812 -9.679688 6.78125 -9.421875 C 7.3125 -9.171875 7.738281 -8.867188 8.0625 -8.515625 L 8.0625 -8.71875 C 8.0625 -9.03125 8.160156 -9.289062 8.359375 -9.5 C 8.566406 -9.707031 8.828125 -9.8125 9.140625 -9.8125 Z M 5.421875 -1.796875 C 6.222656 -1.796875 6.878906 -2.082031 7.390625 -2.65625 C 7.898438 -3.226562 8.15625 -3.945312 8.15625 -4.8125 C 8.15625 -5.675781 7.898438 -6.394531 7.390625 -6.96875 C 6.878906 -7.539062 6.222656 -7.828125 5.421875 -7.828125 C 4.617188 -7.828125 3.960938 -7.539062 3.453125 -6.96875 C 2.953125 -6.394531 2.703125 -5.675781 2.703125 -4.8125 C 2.703125 -3.945312 2.953125 -3.226562 3.453125 -2.65625 C 3.960938 -2.082031 4.617188 -1.796875 5.421875 -1.796875 Z M 5.421875 -1.796875 "/></g></g></g><g fill="#cb6ce6" fill-opacity="1"><g transform="translate(230.129707, 255.49409)"><g><path d="M 6.3125 -9.8125 C 7.539062 -9.8125 8.390625 -9.445312 8.859375 -8.71875 C 9.328125 -7.988281 9.5625 -6.984375 9.5625 -5.703125 L 9.5625 -1.09375 C 9.5625 -0.78125 9.457031 -0.519531 9.25 -0.3125 C 9.050781 -0.101562 8.796875 0 8.484375 0 C 8.171875 0 7.910156 -0.101562 7.703125 -0.3125 C 7.492188 -0.519531 7.390625 -0.78125 7.390625 -1.09375 L 7.390625 -5.703125 C 7.390625 -6.367188 7.25 -6.890625 6.96875 -7.265625 C 6.695312 -7.640625 6.226562 -7.828125 5.5625 -7.828125 C 4.863281 -7.828125 4.316406 -7.625 3.921875 -7.21875 C 3.523438 -6.820312 3.328125 -6.316406 3.328125 -5.703125 L 3.328125 -1.09375 C 3.328125 -0.78125 3.222656 -0.519531 3.015625 -0.3125 C 2.816406 -0.101562 2.5625 0 2.25 0 C 1.9375 0 1.675781 -0.101562 1.46875 -0.3125 C 1.269531 -0.519531 1.171875 -0.78125 1.171875 -1.09375 L 1.171875 -8.53125 C 1.171875 -8.84375 1.269531 -9.101562 1.46875 -9.3125 C 1.675781 -9.519531 1.9375 -9.625 2.25 -9.625 C 2.5625 -9.625 2.816406 -9.519531 3.015625 -9.3125 C 3.222656 -9.101562 3.328125 -8.84375 3.328125 -8.53125 L 3.328125 -8.21875 C 3.648438 -8.65625 4.070312 -9.03125 4.59375 -9.34375 C 5.113281 -9.65625 5.6875 -9.8125 6.3125 -9.8125 Z M 6.3125 -9.8125 "/></g></g></g><g clip-path="url(#54d6d1c318)"><path fill="#cb6ce6" d="M 231.59375 192.667969 L 143.097656 192.667969 C 137.839844 192.667969 133.472656 188.828125 132.609375 183.792969 L 242.070312 183.792969 C 241.230469 188.828125 236.851562 192.667969 231.59375 192.667969 Z M 139.320312 121.132812 C 139.320312 119.855469 140.316406 118.84375 141.59375 118.84375 L 233.078125 118.84375 C 234.351562 118.84375 235.359375 119.855469 235.359375 121.132812 L 235.359375 180.210938 L 139.320312 180.210938 Z M 243.988281 180.230469 L 238.917969 180.230469 L 238.917969 121.132812 C 238.917969 117.917969 236.3125 115.296875 233.089844 115.296875 L 141.59375 115.296875 C 138.386719 115.296875 135.773438 117.917969 135.773438 121.132812 L 135.773438 180.210938 L 130.703125 180.210938 C 129.714844 180.230469 128.929688 181.023438 128.929688 182.011719 C 128.929688 189.847656 135.285156 196.230469 143.097656 196.230469 L 231.59375 196.230469 C 239.40625 196.230469 245.761719 189.847656 245.761719 182.011719 C 245.761719 181.023438 244.984375 180.230469 243.988281 180.230469 " fill-opacity="1" fill-rule="nonzero"/></g><path fill="#cb6ce6" d="M 225.203125 172.300781 L 149.488281 172.300781 L 149.488281 126.871094 L 225.195312 126.871094 L 225.195312 172.300781 Z M 226.980469 123.320312 L 147.710938 123.320312 C 146.726562 123.320312 145.9375 124.109375 145.9375 125.101562 L 145.9375 174.082031 C 145.9375 175.070312 146.726562 175.859375 147.710938 175.859375 L 226.957031 175.859375 C 227.941406 175.859375 228.730469 175.070312 228.730469 174.082031 L 228.730469 125.101562 C 228.753906 124.109375 227.941406 123.320312 226.980469 123.320312 " fill-opacity="1" fill-rule="nonzero"/><path fill="#cb6ce6" d="M 182.355469 163.691406 C 182.5625 163.765625 182.75 163.796875 182.949219 163.796875 C 183.675781 163.796875 184.347656 163.339844 184.609375 162.609375 L 193.308594 137.734375 C 193.640625 136.796875 193.144531 135.789062 192.242188 135.464844 C 191.308594 135.132812 190.300781 135.632812 189.96875 136.546875 L 181.265625 161.425781 C 180.957031 162.351562 181.453125 163.359375 182.355469 163.691406 Z M 210.019531 149.953125 L 198.175781 159.375 C 197.40625 159.976562 197.273438 161.089844 197.882812 161.859375 C 198.226562 162.296875 198.753906 162.539062 199.261719 162.539062 C 199.648438 162.539062 200.03125 162.414062 200.363281 162.152344 L 213.949219 151.359375 C 214.367188 151.035156 214.625 150.515625 214.625 149.984375 C 214.625 149.453125 214.375 148.945312 213.960938 148.601562 L 199.8125 137.015625 C 199.046875 136.402344 197.9375 136.507812 197.335938 137.277344 C 196.710938 138.046875 196.824219 139.160156 197.582031 139.765625 Z M 174.328125 162.152344 C 174.660156 162.414062 175.042969 162.539062 175.429688 162.539062 C 175.957031 162.539062 176.464844 162.296875 176.808594 161.859375 C 177.417969 161.089844 177.285156 159.976562 176.515625 159.375 L 164.671875 149.953125 L 177.109375 139.765625 C 177.867188 139.152344 177.980469 138.027344 177.355469 137.277344 C 176.746094 136.507812 175.625 136.402344 174.878906 137.015625 L 160.730469 148.601562 C 160.316406 148.945312 160.066406 149.433594 160.066406 149.984375 C 160.066406 150.515625 160.324219 151.035156 160.75 151.359375 L 174.328125 162.152344 " fill-opacity="1" fill-rule="nonzero"/></svg>